<?xml version="1.0" standalone="no"?>
<!DOCTYPE svg PUBLIC "-//W3C//DTD SVG 20010904//EN"
 "http://www.w3.org/TR/2001/REC-SVG-20010904/DTD/svg10.dtd">
<svg version="1.0" xmlns="http://www.w3.org/2000/svg"
 width="864.000000pt" height="864.000000pt" viewBox="0 0 864.000000 864.000000"
 preserveAspectRatio="xMidYMid meet">
<metadata>
Created by potrace 1.14, written by Peter Selinger 2001-2017
</metadata>
<g transform="translate(0.000000,864.000000) scale(0.100000,-0.100000)"
fill="#000000" stroke="none">
<path d="M4200 7411 c-94 -31 -165 -95 -206 -185 -23 -50 -27 -75 -32 -187
l-5 -129 -31 -4 c-17 -3 -62 -8 -101 -11 -104 -9 -345 -59 -477 -99 -561 -170
-1071 -569 -1412 -1105 -50 -78 -148 -267 -189 -366 -161 -386 -228 -852 -182
-1275 42 -393 191 -852 320 -986 71 -74 151 -70 390 17 274 99 273 99 306 136
29 34 31 40 26 92 -4 36 -29 113 -72 216 -108 263 -147 408 -165 624 -16 181
8 447 56 636 104 402 410 815 773 1039 132 81 241 133 370 176 122 41 295 80
353 80 l35 0 6 -382 c4 -211 7 -587 7 -836 l0 -453 -27 -62 c-46 -109 -42
-258 9 -361 93 -184 351 -268 541 -177 187 89 257 305 178 551 -14 45 -16 73
-10 160 4 58 7 288 8 513 1 463 -8 423 92 388 377 -129 677 -501 766 -948 23
-119 23 -335 -1 -468 -43 -237 -125 -414 -282 -606 -160 -196 -409 -343 -704
-414 -103 -25 -349 -31 -440 -10 -41 9 -100 19 -131 22 -53 5 -57 4 -77 -25
-37 -51 -43 -79 -28 -117 25 -59 107 -88 303 -106 494 -46 1017 187 1308 583
212 287 321 678 286 1026 -19 196 -53 328 -124 487 -107 238 -264 436 -470
591 -113 85 -297 180 -416 214 l-81 24 0 334 0 334 33 -7 c202 -44 466 -176
687 -345 85 -65 293 -275 362 -365 295 -388 438 -802 438 -1269 0 -318 -66
-609 -197 -869 -274 -547 -725 -908 -1314 -1052 -151 -37 -298 -49 -508 -42
-251 9 -420 43 -660 137 -192 75 -293 134 -455 265 -58 46 -123 94 -145 106
l-40 21 -47 -24 c-57 -28 -138 -106 -225 -214 -109 -138 -269 -350 -328 -435
-45 -65 -64 -84 -93 -94 -89 -30 -186 -136 -214 -233 -44 -151 41 -327 200
-410 45 -24 62 -27 146 -27 112 0 161 18 234 85 58 54 123 151 132 196 8 41
13 42 53 8 47 -39 344 -185 461 -227 193 -68 461 -130 710 -163 205 -28 548
-26 740 5 569 90 987 258 1397 562 553 410 963 1020 1122 1670 61 251 75 382
75 709 1 260 -2 313 -23 450 -105 693 -421 1316 -915 1802 -514 507 -1222 818
-1896 834 -96 2 -186 0 -200 -5z m-1840 -5491 c39 -20 40 -22 40 -74 0 -49 -3
-57 -35 -85 -44 -38 -73 -39 -107 -3 -54 56 -61 111 -19 153 35 34 66 37 121
9z"/>
<path d="M3290 5403 c-33 -6 -164 -142 -235 -245 -121 -171 -211 -379 -257
-592 -19 -87 -22 -132 -23 -326 0 -204 2 -234 24 -320 62 -249 152 -430 213
-430 29 0 96 38 113 64 20 30 16 49 -47 199 -27 65 -61 162 -75 215 -24 87
-26 116 -27 277 -1 201 13 292 66 455 55 171 130 302 258 455 123 147 129 164
83 214 -30 32 -54 41 -93 34z"/>
</g>
</svg>
